<svg xmlns="http://www.w3.org/2000/svg" xmlns:xlink="http://www.w3.org/1999/xlink" width="500" zoomAndPan="magnify" viewBox="0 0 375 374.999991" height="500" preserveAspectRatio="xMidYMid meet" version="1.2"><defs><clipPath id="f67222b1f4"><path d="M 201.882812 85.589844 L 246.769531 85.589844 L 246.769531 232.871094 L 201.882812 232.871094 Z M 201.882812 85.589844 "/></clipPath><clipPath id="8b93d8f97a"><path d="M 246.769531 100.554688 L 246.769531 232.773438 L 201.882812 217.8125 L 201.882812 85.589844 Z M 246.769531 100.554688 "/></clipPath><clipPath id="542fedd6fe"><path d="M 164.359375 85.578125 L 201.890625 85.578125 L 201.890625 127.800781 L 164.359375 127.800781 Z M 164.359375 85.578125 "/></clipPath><clipPath id="8bbb18d0b0"><path d="M 164.359375 98.09375 L 164.359375 127.800781 L 201.890625 115.289062 L 201.890625 85.582031 Z M 164.359375 98.09375 "/></clipPath><clipPath id="6da9081c71"><path d="M 147.421875 121.90625 L 179.625 121.90625 L 179.625 210.214844 L 147.421875 210.214844 Z M 147.421875 121.90625 "/></clipPath><clipPath id="079db1a107"><path d="M 179.625 132.640625 L 179.625 210.160156 L 147.421875 199.425781 L 147.421875 121.90625 Z M 179.625 132.640625 "/></clipPath><clipPath id="329bb05f17"><path d="M 122.058594 121.820312 L 147.429688 121.820312 L 147.429688 183.660156 L 122.058594 183.660156 Z M 122.058594 121.820312 "/></clipPath><clipPath id="834c84a9d1"><path d="M 122.058594 130.351562 L 122.058594 183.660156 L 147.429688 175.203125 L 147.429688 121.894531 Z M 122.058594 130.351562 "/></clipPath></defs><g id="d5cc1ae5d3"><g clip-rule="nonzero" clip-path="url(#f67222b1f4)"><g clip-rule="nonzero" clip-path="url(#8b93d8f97a)"><path style=" stroke:none;fill-rule:nonzero;fill:#ffffff;fill-opacity:1;" d="M 246.769531 85.589844 L 246.769531 232.695312 L 201.882812 232.695312 L 201.882812 85.589844 Z M 246.769531 85.589844 "/></g></g><g clip-rule="nonzero" clip-path="url(#542fedd6fe)"><g clip-rule="nonzero" clip-path="url(#8bbb18d0b0)"><path style=" stroke:none;fill-rule:nonzero;fill:#c0c0c0;fill-opacity:1;" d="M 164.359375 127.800781 L 164.359375 85.578125 L 201.890625 85.578125 L 201.890625 127.800781 Z M 164.359375 127.800781 "/></g></g><g clip-rule="nonzero" clip-path="url(#6da9081c71)"><g clip-rule="nonzero" clip-path="url(#079db1a107)"><path style=" stroke:none;fill-rule:nonzero;fill:#ffffff;fill-opacity:1;" d="M 179.625 121.90625 L 179.625 210.214844 L 147.421875 210.214844 L 147.421875 121.90625 Z M 179.625 121.90625 "/></g></g><g clip-rule="nonzero" clip-path="url(#329bb05f17)"><g clip-rule="nonzero" clip-path="url(#834c84a9d1)"><path style=" stroke:none;fill-rule:nonzero;fill:#c0c0c0;fill-opacity:1;" d="M 122.058594 183.660156 L 122.058594 121.921875 L 147.429688 121.921875 L 147.429688 183.660156 Z M 122.058594 183.660156 "/></g></g><g style="fill:#ffffff;fill-opacity:1;"><g transform="translate(64.455747, 275.903552)"><path style="stroke:none" d="M 27.34375 0 L 27.296875 -15.953125 L 19.484375 -2.8125 L 16.703125 -2.8125 L 8.921875 -15.609375 L 8.921875 0 L 3.15625 0 L 3.15625 -26.578125 L 8.234375 -26.578125 L 18.1875 -10.0625 L 27.984375 -26.578125 L 33.03125 -26.578125 L 33.109375 0 Z M 27.34375 0 "/></g></g><g style="fill:#ffffff;fill-opacity:1;"><g transform="translate(100.71596, 275.903552)"><path style="stroke:none" d="M 15.875 0.453125 C 13.164062 0.453125 10.710938 -0.132812 8.515625 -1.3125 C 6.328125 -2.488281 4.609375 -4.117188 3.359375 -6.203125 C 2.109375 -8.296875 1.484375 -10.65625 1.484375 -13.28125 C 1.484375 -15.914062 2.109375 -18.273438 3.359375 -20.359375 C 4.609375 -22.453125 6.328125 -24.085938 8.515625 -25.265625 C 10.710938 -26.441406 13.175781 -27.03125 15.90625 -27.03125 C 18.207031 -27.03125 20.289062 -26.625 22.15625 -25.8125 C 24.019531 -25.007812 25.582031 -23.847656 26.84375 -22.328125 L 22.890625 -18.6875 C 21.097656 -20.757812 18.875 -21.796875 16.21875 -21.796875 C 14.570312 -21.796875 13.101562 -21.429688 11.8125 -20.703125 C 10.519531 -19.984375 9.507812 -18.976562 8.78125 -17.6875 C 8.0625 -16.394531 7.703125 -14.925781 7.703125 -13.28125 C 7.703125 -11.644531 8.0625 -10.179688 8.78125 -8.890625 C 9.507812 -7.597656 10.519531 -6.585938 11.8125 -5.859375 C 13.101562 -5.140625 14.570312 -4.78125 16.21875 -4.78125 C 18.875 -4.78125 21.097656 -5.832031 22.890625 -7.9375 L 26.84375 -4.296875 C 25.582031 -2.742188 24.015625 -1.5625 22.140625 -0.75 C 20.265625 0.0507812 18.175781 0.453125 15.875 0.453125 Z M 15.875 0.453125 "/></g></g><g style="fill:#ffffff;fill-opacity:1;"><g transform="translate(128.547097, 275.903552)"><path style="stroke:none" d=""/></g></g><g style="fill:#ffffff;fill-opacity:1;"><g transform="translate(139.292274, 275.903552)"><path style="stroke:none" d="M 3.15625 -26.578125 L 9.296875 -26.578125 L 9.296875 0 L 3.15625 0 Z M 3.15625 -26.578125 "/></g></g><g style="fill:#ffffff;fill-opacity:1;"><g transform="translate(151.746043, 275.903552)"><path style="stroke:none" d="M 27.34375 0 L 27.296875 -15.953125 L 19.484375 -2.8125 L 16.703125 -2.8125 L 8.921875 -15.609375 L 8.921875 0 L 3.15625 0 L 3.15625 -26.578125 L 8.234375 -26.578125 L 18.1875 -10.0625 L 27.984375 -26.578125 L 33.03125 -26.578125 L 33.109375 0 Z M 27.34375 0 "/></g></g><g style="fill:#ffffff;fill-opacity:1;"><g transform="translate(188.006256, 275.903552)"><path style="stroke:none" d="M 16.015625 0.453125 C 13.265625 0.453125 10.78125 -0.140625 8.5625 -1.328125 C 6.34375 -2.515625 4.609375 -4.148438 3.359375 -6.234375 C 2.109375 -8.328125 1.484375 -10.675781 1.484375 -13.28125 C 1.484375 -15.894531 2.109375 -18.242188 3.359375 -20.328125 C 4.609375 -22.421875 6.34375 -24.0625 8.5625 -25.25 C 10.78125 -26.4375 13.265625 -27.03125 16.015625 -27.03125 C 18.773438 -27.03125 21.253906 -26.4375 23.453125 -25.25 C 25.660156 -24.0625 27.394531 -22.421875 28.65625 -20.328125 C 29.925781 -18.242188 30.5625 -15.894531 30.5625 -13.28125 C 30.5625 -10.675781 29.925781 -8.328125 28.65625 -6.234375 C 27.394531 -4.148438 25.660156 -2.515625 23.453125 -1.328125 C 21.253906 -0.140625 18.773438 0.453125 16.015625 0.453125 Z M 16.015625 -4.78125 C 17.585938 -4.78125 19.003906 -5.140625 20.265625 -5.859375 C 21.535156 -6.585938 22.53125 -7.597656 23.25 -8.890625 C 23.976562 -10.179688 24.34375 -11.644531 24.34375 -13.28125 C 24.34375 -14.925781 23.976562 -16.394531 23.25 -17.6875 C 22.53125 -18.976562 21.535156 -19.984375 20.265625 -20.703125 C 19.003906 -21.429688 17.585938 -21.796875 16.015625 -21.796875 C 14.453125 -21.796875 13.035156 -21.429688 11.765625 -20.703125 C 10.503906 -19.984375 9.507812 -18.976562 8.78125 -17.6875 C 8.0625 -16.394531 7.703125 -14.925781 7.703125 -13.28125 C 7.703125 -11.644531 8.0625 -10.179688 8.78125 -8.890625 C 9.507812 -7.597656 10.503906 -6.585938 11.765625 -5.859375 C 13.035156 -5.140625 14.453125 -4.78125 16.015625 -4.78125 Z M 17.6875 -34.203125 L 24.0625 -34.203125 L 17.1875 -28.75 L 12.5625 -28.75 Z M 17.6875 -34.203125 "/></g></g><g style="fill:#ffffff;fill-opacity:1;"><g transform="translate(220.051932, 275.903552)"><path style="stroke:none" d="M 28.703125 -26.578125 L 17.203125 0 L 11.125 0 L -0.34375 -26.578125 L 6.296875 -26.578125 L 14.390625 -7.59375 L 22.59375 -26.578125 Z M 28.703125 -26.578125 "/></g></g><g style="fill:#ffffff;fill-opacity:1;"><g transform="translate(248.376664, 275.903552)"><path style="stroke:none" d="M 23.734375 -4.9375 L 23.734375 0 L 3.15625 0 L 3.15625 -26.578125 L 23.234375 -26.578125 L 23.234375 -21.640625 L 9.265625 -21.640625 L 9.265625 -15.875 L 21.609375 -15.875 L 21.609375 -11.09375 L 9.265625 -11.09375 L 9.265625 -4.9375 Z M 23.734375 -4.9375 "/></g></g><g style="fill:#ffffff;fill-opacity:1;"><g transform="translate(273.853728, 275.903552)"><path style="stroke:none" d="M 3.15625 -26.578125 L 9.296875 -26.578125 L 9.296875 0 L 3.15625 0 Z M 3.15625 -26.578125 "/></g></g><g style="fill:#ffffff;fill-opacity:1;"><g transform="translate(286.307508, 275.903552)"><path style="stroke:none" d="M 11.890625 0.453125 C 9.785156 0.453125 7.75 0.171875 5.78125 -0.390625 C 3.820312 -0.960938 2.25 -1.707031 1.0625 -2.625 L 3.15625 -7.25 C 4.289062 -6.414062 5.640625 -5.742188 7.203125 -5.234375 C 8.773438 -4.734375 10.347656 -4.484375 11.921875 -4.484375 C 13.671875 -4.484375 14.960938 -4.738281 15.796875 -5.25 C 16.628906 -5.769531 17.046875 -6.460938 17.046875 -7.328125 C 17.046875 -7.960938 16.796875 -8.488281 16.296875 -8.90625 C 15.804688 -9.320312 15.175781 -9.65625 14.40625 -9.90625 C 13.632812 -10.164062 12.59375 -10.445312 11.28125 -10.75 C 9.25 -11.226562 7.585938 -11.707031 6.296875 -12.1875 C 5.003906 -12.664062 3.894531 -13.4375 2.96875 -14.5 C 2.050781 -15.5625 1.59375 -16.976562 1.59375 -18.75 C 1.59375 -20.300781 2.007812 -21.703125 2.84375 -22.953125 C 3.675781 -24.203125 4.9375 -25.191406 6.625 -25.921875 C 8.3125 -26.660156 10.367188 -27.03125 12.796875 -27.03125 C 14.492188 -27.03125 16.148438 -26.828125 17.765625 -26.421875 C 19.390625 -26.015625 20.804688 -25.429688 22.015625 -24.671875 L 20.125 -20.015625 C 17.664062 -21.398438 15.207031 -22.09375 12.75 -22.09375 C 11.03125 -22.09375 9.757812 -21.8125 8.9375 -21.25 C 8.113281 -20.695312 7.703125 -19.96875 7.703125 -19.0625 C 7.703125 -18.144531 8.175781 -17.460938 9.125 -17.015625 C 10.082031 -16.578125 11.535156 -16.144531 13.484375 -15.71875 C 15.503906 -15.238281 17.160156 -14.757812 18.453125 -14.28125 C 19.742188 -13.800781 20.847656 -13.039062 21.765625 -12 C 22.691406 -10.957031 23.15625 -9.550781 23.15625 -7.78125 C 23.15625 -6.257812 22.726562 -4.875 21.875 -3.625 C 21.03125 -2.375 19.757812 -1.378906 18.0625 -0.640625 C 16.375 0.0859375 14.316406 0.453125 11.890625 0.453125 Z M 11.890625 0.453125 "/></g></g></g></svg>